<svg width="48" height="48" viewBox="0 0 48 48" fill="none" xmlns="http://www.w3.org/2000/svg">
<path d="M35.8122 14.8284V7.93122C35.8122 5.40227 38.0497 3.33313 40.7845 3.33313M25.8676 26.3236H35.8122M25.8676 6.7817C25.8769 5.34337 25.3026 3.95412 24.2582 2.88826C23.2137 1.82239 21.7751 1.1574 20.2264 1.02457C18.6776 0.891746 17.1313 1.30075 15.8927 2.17081C14.6541 3.04088 13.8134 4.30877 13.5364 5.72414C12.7169 5.86613 11.9366 6.15916 11.242 6.58578C10.5475 7.0124 9.95286 7.5639 9.49357 8.20743C9.03427 8.85096 8.71969 9.57338 8.56856 10.3317C8.41743 11.0899 8.43283 11.8686 8.61385 12.6213C7.49176 12.8055 6.44604 13.2714 5.59102 13.9682C4.736 14.665 4.10459 15.5657 3.76584 16.5719C3.42708 17.5782 3.39402 18.6512 3.67026 19.6736C3.94651 20.696 4.52142 21.6286 5.33215 22.3692C3.96858 22.9514 2.82683 23.9006 2.05633 25.0928C1.28583 26.2849 0.922468 27.6644 1.01381 29.0507C1.10515 30.437 1.64694 31.7655 2.56826 32.8623C3.48959 33.9591 4.74752 34.7731 6.17744 35.1979C5.90442 36.1517 5.9015 37.1544 6.16895 38.1095C6.4364 39.0646 6.96521 39.94 7.70449 40.6513C8.44378 41.3627 9.36863 41.8861 10.39 42.1711C11.4114 42.4562 12.495 42.4933 13.5364 42.279C13.7945 43.5937 14.5399 44.7842 15.6444 45.6458C16.749 46.5074 18.1436 46.9861 19.5885 46.9997C21.0334 47.0133 22.4383 46.5609 23.5616 45.7204C24.6849 44.8798 25.4563 43.7035 25.7433 42.3939L25.8676 42.4169V6.7817Z" stroke="#14281D" stroke-width="2" stroke-linecap="round" stroke-linejoin="round"/>
<path d="M25.8678 37.8186H40.7846C42.1033 37.8186 43.3681 38.303 44.3005 39.1653C45.233 40.0276 45.7569 41.1972 45.7569 42.4166V44.7157M25.8678 14.8281H45.7569M47 14.8281C47 15.133 46.869 15.4254 46.6359 15.6409C46.4027 15.8565 46.0866 15.9776 45.7569 15.9776C45.4272 15.9776 45.111 15.8565 44.8779 15.6409C44.6448 15.4254 44.5138 15.133 44.5138 14.8281C44.5138 14.5232 44.6448 14.2309 44.8779 14.0153C45.111 13.7997 45.4272 13.6786 45.7569 13.6786C46.0866 13.6786 46.4027 13.7997 46.6359 14.0153C46.869 14.2309 47 14.5232 47 14.8281ZM37.0554 26.3233C37.0554 26.6282 36.9244 26.9206 36.6913 27.1362C36.4582 27.3517 36.142 27.4729 35.8123 27.4729C35.4827 27.4729 35.1665 27.3517 34.9334 27.1362C34.7002 26.9206 34.5693 26.6282 34.5693 26.3233C34.5693 26.0185 34.7002 25.7261 34.9334 25.5105C35.1665 25.2949 35.4827 25.1738 35.8123 25.1738C36.142 25.1738 36.4582 25.2949 36.6913 25.5105C36.9244 25.7261 37.0554 26.0185 37.0554 26.3233Z" stroke="#14281D" stroke-width="2" stroke-linecap="round" stroke-linejoin="round"/>
<path d="M47 44.7157C47 45.0205 46.8691 45.3129 46.636 45.5285C46.4028 45.7441 46.0866 45.8652 45.757 45.8652C45.4273 45.8652 45.1111 45.7441 44.878 45.5285C44.6449 45.3129 44.5139 45.0205 44.5139 44.7157C44.5139 44.4108 44.6449 44.1184 44.878 43.9028C45.1111 43.6873 45.4273 43.5661 45.757 43.5661C46.0866 43.5661 46.4028 43.6873 46.636 43.9028C46.8691 44.1184 47 44.4108 47 44.7157ZM42.0278 3.33287C42.0278 3.63774 41.8968 3.93013 41.6637 4.14571C41.4306 4.36128 41.1144 4.48239 40.7847 4.48239C40.455 4.48239 40.1388 4.36128 39.9057 4.14571C39.6726 3.93013 39.5416 3.63774 39.5416 3.33287C39.5416 3.028 39.6726 2.73561 39.9057 2.52004C40.1388 2.30446 40.455 2.18335 40.7847 2.18335C41.1144 2.18335 41.4306 2.30446 41.6637 2.52004C41.8968 2.73561 42.0278 3.028 42.0278 3.33287Z" stroke="#14281D" stroke-width="2" stroke-linecap="round" stroke-linejoin="round"/>
</svg>
