<svg width="202" height="60" viewBox="0 0 202 60" fill="none" xmlns="http://www.w3.org/2000/svg">
<path d="M42.7036 25.0185V20.5204C42.7036 18.871 44.1629 17.5216 45.9464 17.5216M36.218 32.5154H42.7036M36.218 19.7707C36.224 18.8326 35.8495 17.9266 35.1684 17.2315C34.4872 16.5363 33.549 16.1027 32.5389 16.016C31.5289 15.9294 30.5204 16.1961 29.7126 16.7636C28.9049 17.331 28.3565 18.1579 28.1759 19.081C27.6414 19.1736 27.1326 19.3647 26.6796 19.6429C26.2266 19.9211 25.8388 20.2808 25.5393 20.7005C25.2397 21.1202 25.0346 21.5913 24.936 22.0859C24.8375 22.5804 24.8475 23.0882 24.9656 23.5791C24.2338 23.6992 23.5518 24.0031 22.9941 24.4575C22.4365 24.9119 22.0247 25.4994 21.8038 26.1556C21.5829 26.8118 21.5613 27.5116 21.7415 28.1784C21.9216 28.8452 22.2966 29.4534 22.8253 29.9364C21.936 30.3161 21.1914 30.9352 20.6889 31.7127C20.1864 32.4902 19.9494 33.3898 20.009 34.2939C20.0686 35.198 20.4219 36.0644 21.0228 36.7797C21.6236 37.4951 22.444 38.026 23.3766 38.303C23.1985 38.925 23.1966 39.5789 23.3711 40.2018C23.5455 40.8247 23.8904 41.3956 24.3725 41.8596C24.8546 42.3235 25.4578 42.6648 26.1239 42.8507C26.7901 43.0367 27.4967 43.0609 28.1759 42.9211C28.3442 43.7785 28.8304 44.5549 29.5507 45.1168C30.2711 45.6787 31.1806 45.9909 32.1229 45.9998C33.0653 46.0087 33.9815 45.7136 34.7141 45.1654C35.4467 44.6172 35.9498 43.8501 36.137 42.996L36.218 43.011V19.7707Z" stroke="#14281D" stroke-width="2" stroke-linecap="round" stroke-linejoin="round"/>
<path d="M36.2181 40.0121H45.9465C46.8065 40.0121 47.6314 40.3281 48.2395 40.8904C48.8476 41.4528 49.1893 42.2156 49.1893 43.0109V44.5103M36.2181 25.0184H49.1893M50 25.0184C50 25.2172 49.9146 25.4079 49.7625 25.5485C49.6105 25.6891 49.4043 25.7681 49.1893 25.7681C48.9743 25.7681 48.7681 25.6891 48.616 25.5485C48.464 25.4079 48.3786 25.2172 48.3786 25.0184C48.3786 24.8195 48.464 24.6288 48.616 24.4883C48.7681 24.3477 48.9743 24.2687 49.1893 24.2687C49.4043 24.2687 49.6105 24.3477 49.7625 24.4883C49.9146 24.6288 50 24.8195 50 25.0184ZM43.5144 32.5152C43.5144 32.7141 43.429 32.9048 43.277 33.0454C43.1249 33.186 42.9187 33.2649 42.7037 33.2649C42.4887 33.2649 42.2825 33.186 42.1305 33.0454C41.9784 32.9048 41.893 32.7141 41.893 32.5152C41.893 32.3164 41.9784 32.1257 42.1305 31.9851C42.2825 31.8445 42.4887 31.7656 42.7037 31.7656C42.9187 31.7656 43.1249 31.8445 43.277 31.9851C43.429 32.1257 43.5144 32.3164 43.5144 32.5152Z" stroke="#14281D" stroke-width="2" stroke-linecap="round" stroke-linejoin="round"/>
<path d="M50 44.5102C50 44.709 49.9146 44.8997 49.7626 45.0403C49.6106 45.1809 49.4044 45.2599 49.1893 45.2599C48.9743 45.2599 48.7681 45.1809 48.6161 45.0403C48.4641 44.8997 48.3787 44.709 48.3787 44.5102C48.3787 44.3114 48.4641 44.1207 48.6161 43.9801C48.7681 43.8395 48.9743 43.7605 49.1893 43.7605C49.4044 43.7605 49.6106 43.8395 49.7626 43.9801C49.9146 44.1207 50 44.3114 50 44.5102ZM46.7573 17.5214C46.7573 17.7202 46.6718 17.9109 46.5198 18.0515C46.3678 18.1921 46.1616 18.2711 45.9466 18.2711C45.7316 18.2711 45.5253 18.1921 45.3733 18.0515C45.2213 17.9109 45.1359 17.7202 45.1359 17.5214C45.1359 17.3226 45.2213 17.1319 45.3733 16.9913C45.5253 16.8507 45.7316 16.7717 45.9466 16.7717C46.1616 16.7717 46.3678 16.8507 46.5198 16.9913C46.6718 17.1319 46.7573 17.3226 46.7573 17.5214Z" stroke="#14281D" stroke-width="2" stroke-linecap="round" stroke-linejoin="round"/>
<path d="M73.9297 35.2656C73.9297 35.8906 73.7969 36.5 73.5312 37.0938C73.2812 37.6719 72.9219 38.1875 72.4531 38.6406C71.9844 39.0781 71.4062 39.4297 70.7188 39.6953C70.0312 39.9609 69.25 40.0938 68.375 40.0938C68 40.0938 67.6094 40.0703 67.2031 40.0234C66.8125 39.9922 66.4141 39.9297 66.0078 39.8359C65.6016 39.7422 65.2109 39.6172 64.8359 39.4609C64.4766 39.2891 64.1641 39.0859 63.8984 38.8516L64.3906 36.8359C64.6094 36.9609 64.8828 37.0859 65.2109 37.2109C65.5547 37.3203 65.9062 37.4297 66.2656 37.5391C66.625 37.6328 66.9844 37.7109 67.3438 37.7734C67.7031 37.8359 68.0391 37.8672 68.3516 37.8672C69.3047 37.8672 70.0312 37.6484 70.5312 37.2109C71.0469 36.7578 71.3047 36.0938 71.3047 35.2188C71.3047 34.6875 71.125 34.2344 70.7656 33.8594C70.4062 33.4844 69.9531 33.1484 69.4062 32.8516C68.875 32.5391 68.2969 32.2344 67.6719 31.9375C67.0469 31.625 66.4609 31.2656 65.9141 30.8594C65.3672 30.4375 64.9141 29.9453 64.5547 29.3828C64.1953 28.8203 64.0156 28.1172 64.0156 27.2734C64.0156 26.5078 64.1562 25.8281 64.4375 25.2344C64.7188 24.6406 65.0938 24.1406 65.5625 23.7344C66.0469 23.3125 66.6016 22.9922 67.2266 22.7734C67.8672 22.5547 68.5391 22.4453 69.2422 22.4453C69.9609 22.4453 70.6875 22.5156 71.4219 22.6562C72.1562 22.7812 72.75 22.9922 73.2031 23.2891C73.1094 23.4922 73 23.7188 72.875 23.9688C72.75 24.2031 72.6328 24.4297 72.5234 24.6484C72.4141 24.8516 72.3203 25.0234 72.2422 25.1641C72.1641 25.3047 72.1172 25.3828 72.1016 25.3984C72.0078 25.3516 71.8984 25.2891 71.7734 25.2109C71.6641 25.1328 71.5 25.0547 71.2812 24.9766C71.0625 24.8984 70.7734 24.8438 70.4141 24.8125C70.0547 24.7812 69.5938 24.7891 69.0312 24.8359C68.7188 24.8672 68.4219 24.9609 68.1406 25.1172C67.8594 25.2578 67.6094 25.4375 67.3906 25.6562C67.1719 25.875 67 26.125 66.875 26.4062C66.75 26.6719 66.6875 26.9297 66.6875 27.1797C66.6875 27.8047 66.8672 28.3125 67.2266 28.7031C67.5859 29.0781 68.0312 29.4141 68.5625 29.7109C69.0938 29.9922 69.6719 30.2734 70.2969 30.5547C70.9219 30.8203 71.5 31.1484 72.0312 31.5391C72.5781 31.9297 73.0312 32.4219 73.3906 33.0156C73.75 33.5938 73.9297 34.3438 73.9297 35.2656ZM86.5156 38.1484C85.9844 38.8203 85.4062 39.3203 84.7812 39.6484C84.1562 39.9609 83.3594 40.1172 82.3906 40.1172C81.4688 40.1172 80.6328 39.9453 79.8828 39.6016C79.1328 39.2422 78.4922 38.7656 77.9609 38.1719C77.4297 37.5625 77.0234 36.8516 76.7422 36.0391C76.4766 35.2266 76.3438 34.3438 76.3438 33.3906C76.3438 32.4531 76.4922 31.5781 76.7891 30.7656C77.0859 29.9531 77.5 29.25 78.0312 28.6562C78.5625 28.0469 79.2031 27.5703 79.9531 27.2266C80.7031 26.8828 81.5391 26.7109 82.4609 26.7109C83.4297 26.7109 84.2578 26.875 84.9453 27.2031C85.6328 27.5156 86.2422 28.0078 86.7734 28.6797L85.5078 30.2031C85.2422 29.8906 84.875 29.6094 84.4062 29.3594C83.9375 29.0938 83.2969 28.9609 82.4844 28.9609C82.0156 28.9609 81.5859 29.0703 81.1953 29.2891C80.8047 29.5078 80.4688 29.8125 80.1875 30.2031C79.9219 30.5938 79.7109 31.0547 79.5547 31.5859C79.4141 32.1172 79.3438 32.6953 79.3438 33.3203C79.3438 33.9453 79.4062 34.5312 79.5312 35.0781C79.6719 35.6094 79.875 36.0781 80.1406 36.4844C80.4062 36.8906 80.7188 37.2109 81.0781 37.4453C81.4531 37.6797 81.8828 37.7969 82.3672 37.7969C83.0703 37.7969 83.6562 37.6875 84.125 37.4688C84.6094 37.2344 85.0547 36.9531 85.4609 36.625L86.5156 38.1484ZM93.2656 40H90.4062V26.7812H93.2656V40ZM93.5234 22.5625C93.5234 23.0312 93.3594 23.4297 93.0312 23.7578C92.7031 24.0703 92.3047 24.2266 91.8359 24.2266C91.3672 24.2266 90.9688 24.0625 90.6406 23.7344C90.3281 23.4062 90.1719 23.0156 90.1719 22.5625C90.1719 22.0938 90.3359 21.6953 90.6641 21.3672C90.9922 21.0391 91.3828 20.875 91.8359 20.875C92.3047 20.875 92.7031 21.0391 93.0312 21.3672C93.3594 21.6953 93.5234 22.0938 93.5234 22.5625ZM104.703 31.9609V34.3281H97.25V31.9609H104.703ZM111.781 24.8594V30.2969H119V32.2188H111.781V40H108.922V22.7266H119.727V24.8594H111.781ZM125.398 40H122.539V26.7812H125.398V40ZM125.656 22.5625C125.656 23.0312 125.492 23.4297 125.164 23.7578C124.836 24.0703 124.438 24.2266 123.969 24.2266C123.5 24.2266 123.102 24.0625 122.773 23.7344C122.461 23.4062 122.305 23.0156 122.305 22.5625C122.305 22.0938 122.469 21.6953 122.797 21.3672C123.125 21.0391 123.516 20.875 123.969 20.875C124.438 20.875 124.836 21.0391 125.164 21.3672C125.492 21.6953 125.656 22.0938 125.656 22.5625ZM149.141 22.7266V40H146.328V32.2188H138.852V40H135.992V22.7266H138.852V30.2969H146.328V22.7266H149.141ZM153.266 27.25V26.7812H156.125V33.9766C156.125 34.5234 156.148 35.0391 156.195 35.5234C156.242 35.9922 156.344 36.4062 156.5 36.7656C156.656 37.125 156.891 37.4141 157.203 37.6328C157.516 37.8516 157.93 37.9609 158.445 37.9609C158.602 37.9609 158.82 37.9453 159.102 37.9141C159.383 37.8672 159.664 37.7969 159.945 37.7031C160.242 37.6094 160.516 37.4922 160.766 37.3516C161.031 37.2109 161.227 37.0469 161.352 36.8594V36.6953V36.6719V31.4219V31.3984V26.7812H164.211V40H161.656L161.352 38.6406C161.164 38.8125 160.93 38.9844 160.648 39.1562C160.367 39.3281 160.055 39.4922 159.711 39.6484C159.383 39.7891 159.039 39.9062 158.68 40C158.336 40.0781 157.992 40.1172 157.648 40.1172C157.273 40.1172 156.938 40.0781 156.641 40C156.344 39.9375 156.062 39.8359 155.797 39.6953C155.547 39.5391 155.305 39.3672 155.07 39.1797C154.836 38.9922 154.602 38.7812 154.367 38.5469C154.102 38.2812 153.891 37.9766 153.734 37.6328C153.578 37.2734 153.461 36.9062 153.383 36.5312C153.32 36.1406 153.281 35.75 153.266 35.3594C153.266 34.9688 153.266 34.5859 153.266 34.2109V27.2266V27.25ZM179.75 30.7891C179.938 31.5078 180.031 32.2969 180.031 33.1562C180.031 34.0469 179.922 34.9141 179.703 35.7578C179.5 36.6016 179.18 37.3516 178.742 38.0078C178.32 38.6484 177.781 39.1641 177.125 39.5547C176.484 39.9297 175.727 40.1172 174.852 40.1172C174.383 40.1172 173.93 40.0703 173.492 39.9766C173.055 39.8828 172.656 39.7578 172.297 39.6016C171.953 39.4297 171.664 39.25 171.43 39.0625C171.211 38.8594 171.078 38.6484 171.031 38.4297C171.016 38.6484 170.992 38.8984 170.961 39.1797C170.93 39.4609 170.906 39.7344 170.891 40H168.195V21.7891H171.031V28.1172C171.344 27.6797 171.812 27.3281 172.438 27.0625C173.078 26.7969 173.781 26.6641 174.547 26.6641C175.062 26.6641 175.586 26.7344 176.117 26.875C176.648 27.0156 177.141 27.25 177.594 27.5781C178.062 27.9062 178.484 28.3359 178.859 28.8672C179.25 29.3984 179.547 30.0391 179.75 30.7891ZM173.891 37.8906C174.359 37.8906 174.781 37.7734 175.156 37.5391C175.547 37.3047 175.875 36.9922 176.141 36.6016C176.422 36.1953 176.641 35.7188 176.797 35.1719C176.969 34.625 177.055 34.0391 177.055 33.4141C177.055 32.8047 176.977 32.2266 176.82 31.6797C176.68 31.1328 176.477 30.6484 176.211 30.2266C175.961 29.8047 175.648 29.4688 175.273 29.2188C174.898 28.9688 174.477 28.8438 174.008 28.8438C173.539 28.8438 173.109 28.9609 172.719 29.1953C172.328 29.4297 171.992 29.75 171.711 30.1562C171.445 30.5469 171.234 31.0156 171.078 31.5625C170.938 32.0938 170.867 32.6719 170.867 33.2969C170.867 33.9219 170.93 34.5156 171.055 35.0781C171.195 35.625 171.398 36.1094 171.664 36.5312C171.93 36.9375 172.242 37.2656 172.602 37.5156C172.977 37.7656 173.406 37.8906 173.891 37.8906Z" fill="#14281D"/>
</svg>
